<svg xmlns="http://www.w3.org/2000/svg" xmlns:xlink="http://www.w3.org/1999/xlink" width="100" zoomAndPan="magnify" viewBox="0 0 75 74.999997" height="100" preserveAspectRatio="xMidYMid meet" version="1.0"><defs><g/><clipPath id="70037252c6"><path d="M 2.472656 19.984375 L 72.214844 19.984375 L 72.214844 55.011719 L 2.472656 55.011719 Z M 2.472656 19.984375 " clip-rule="nonzero"/></clipPath><clipPath id="e5c2fb8de4"><path d="M 55.011719 19.984375 C 64.683594 19.984375 72.527344 27.824219 72.527344 37.496094 C 72.527344 47.167969 64.683594 55.011719 55.011719 55.011719 L 19.984375 55.011719 C 10.3125 55.011719 2.472656 47.167969 2.472656 37.496094 C 2.472656 27.824219 10.3125 19.984375 19.984375 19.984375 Z M 55.011719 19.984375 " clip-rule="nonzero"/></clipPath></defs><rect x="-7.5" width="90" fill="#ffffff" y="-7.5" height="89.999996" fill-opacity="1"/><rect x="-7.5" width="90" fill="#ffffff" y="-7.5" height="89.999996" fill-opacity="1"/><g clip-path="url(#70037252c6)"><g clip-path="url(#e5c2fb8de4)"><path stroke-linecap="butt" transform="matrix(0.75, 0, 0, 0.75, 2.471614, 19.982874)" fill="none" stroke-linejoin="miter" d="M 70.053479 0.00200132 C 82.949313 0.00200132 93.407647 10.455127 93.407647 23.350962 C 93.407647 36.246796 82.949313 46.70513 70.053479 46.70513 L 23.35035 46.70513 C 10.454515 46.70513 0.00138956 36.246796 0.00138956 23.350962 C 0.00138956 10.455127 10.454515 0.00200132 23.35035 0.00200132 Z M 70.053479 0.00200132 " stroke="#000000" stroke-width="2" stroke-opacity="1" stroke-miterlimit="4"/></g></g><g fill="#000000" fill-opacity="1"><g transform="translate(20.976562, 39.749996)"><g><path d="M 0.125 1.6875 C -0.15625 1.6875 -0.394531 1.65625 -0.59375 1.59375 L -0.59375 0.59375 C -0.382812 0.644531 -0.195312 0.671875 -0.03125 0.671875 C 0.238281 0.671875 0.429688 0.585938 0.546875 0.421875 C 0.660156 0.253906 0.71875 -0.00390625 0.71875 -0.359375 L 0.71875 -5.71875 L 1.9375 -5.71875 L 1.9375 -0.375 C 1.9375 0.300781 1.78125 0.8125 1.46875 1.15625 C 1.164062 1.507812 0.71875 1.6875 0.125 1.6875 Z M 0.125 1.6875 "/></g></g></g><g fill="#000000" fill-opacity="1"><g transform="translate(23.622413, 39.749996)"><g><path d="M 3.0625 -4.453125 C 3.226562 -4.453125 3.363281 -4.441406 3.46875 -4.421875 L 3.375 -3.296875 C 3.28125 -3.328125 3.164062 -3.34375 3.03125 -3.34375 C 2.644531 -3.34375 2.34375 -3.242188 2.125 -3.046875 C 1.914062 -2.847656 1.8125 -2.570312 1.8125 -2.21875 L 1.8125 0 L 0.625 0 L 0.625 -4.375 L 1.53125 -4.375 L 1.703125 -3.640625 L 1.765625 -3.640625 C 1.898438 -3.878906 2.082031 -4.070312 2.3125 -4.21875 C 2.539062 -4.375 2.789062 -4.453125 3.0625 -4.453125 Z M 3.0625 -4.453125 "/></g></g></g><g fill="#000000" fill-opacity="1"><g transform="translate(27.251678, 39.749996)"><g><path d="M 1.9375 -3.171875 L 2.328125 -3.171875 C 2.703125 -3.171875 2.976562 -3.234375 3.15625 -3.359375 C 3.34375 -3.492188 3.4375 -3.695312 3.4375 -3.96875 C 3.4375 -4.238281 3.34375 -4.429688 3.15625 -4.546875 C 2.976562 -4.660156 2.691406 -4.71875 2.296875 -4.71875 L 1.9375 -4.71875 Z M 1.9375 -2.1875 L 1.9375 0 L 0.71875 0 L 0.71875 -5.71875 L 2.390625 -5.71875 C 3.160156 -5.71875 3.734375 -5.570312 4.109375 -5.28125 C 4.484375 -5 4.671875 -4.570312 4.671875 -4 C 4.671875 -3.664062 4.578125 -3.367188 4.390625 -3.109375 C 4.203125 -2.847656 3.941406 -2.640625 3.609375 -2.484375 C 4.460938 -1.203125 5.019531 -0.375 5.28125 0 L 3.9375 0 L 2.578125 -2.1875 Z M 1.9375 -2.1875 "/></g></g></g><g fill="#000000" fill-opacity="1"><g transform="translate(32.52777, 39.749996)"><g><path d="M 3.40625 0 L 3.171875 -0.59375 L 3.140625 -0.59375 C 2.941406 -0.34375 2.734375 -0.164062 2.515625 -0.0625 C 2.304688 0.03125 2.03125 0.078125 1.6875 0.078125 C 1.269531 0.078125 0.941406 -0.0390625 0.703125 -0.28125 C 0.460938 -0.519531 0.34375 -0.863281 0.34375 -1.3125 C 0.34375 -1.769531 0.503906 -2.109375 0.828125 -2.328125 C 1.148438 -2.546875 1.640625 -2.671875 2.296875 -2.703125 L 3.046875 -2.71875 L 3.046875 -2.90625 C 3.046875 -3.351562 2.820312 -3.578125 2.375 -3.578125 C 2.019531 -3.578125 1.609375 -3.472656 1.140625 -3.265625 L 0.75 -4.0625 C 1.25 -4.320312 1.804688 -4.453125 2.421875 -4.453125 C 3.003906 -4.453125 3.453125 -4.320312 3.765625 -4.0625 C 4.078125 -3.8125 4.234375 -3.425781 4.234375 -2.90625 L 4.234375 0 Z M 3.046875 -2.03125 L 2.59375 -2.015625 C 2.238281 -2.003906 1.976562 -1.941406 1.8125 -1.828125 C 1.644531 -1.710938 1.5625 -1.535156 1.5625 -1.296875 C 1.5625 -0.960938 1.753906 -0.796875 2.140625 -0.796875 C 2.410156 -0.796875 2.628906 -0.875 2.796875 -1.03125 C 2.960938 -1.1875 3.046875 -1.398438 3.046875 -1.671875 Z M 3.046875 -2.03125 "/></g></g></g><g fill="#000000" fill-opacity="1"><g transform="translate(37.355082, 39.749996)"><g><path d="M 1.671875 0 L 0 -4.375 L 1.25 -4.375 L 2.09375 -1.875 C 2.1875 -1.5625 2.242188 -1.265625 2.265625 -0.984375 L 2.296875 -0.984375 C 2.304688 -1.234375 2.363281 -1.53125 2.46875 -1.875 L 3.3125 -4.375 L 4.546875 -4.375 L 2.890625 0 Z M 1.671875 0 "/></g></g></g><g fill="#000000" fill-opacity="1"><g transform="translate(41.901419, 39.749996)"><g><path d="M 2.4375 -3.609375 C 2.1875 -3.609375 1.988281 -3.523438 1.84375 -3.359375 C 1.695312 -3.203125 1.613281 -2.976562 1.59375 -2.6875 L 3.265625 -2.6875 C 3.265625 -2.976562 3.1875 -3.203125 3.03125 -3.359375 C 2.882812 -3.523438 2.6875 -3.609375 2.4375 -3.609375 Z M 2.609375 0.078125 C 1.898438 0.078125 1.347656 -0.113281 0.953125 -0.5 C 0.554688 -0.894531 0.359375 -1.445312 0.359375 -2.15625 C 0.359375 -2.882812 0.539062 -3.445312 0.90625 -3.84375 C 1.269531 -4.25 1.773438 -4.453125 2.421875 -4.453125 C 3.046875 -4.453125 3.53125 -4.273438 3.875 -3.921875 C 4.21875 -3.566406 4.390625 -3.082031 4.390625 -2.46875 L 4.390625 -1.890625 L 1.5625 -1.890625 C 1.582031 -1.546875 1.6875 -1.28125 1.875 -1.09375 C 2.0625 -0.90625 2.320312 -0.8125 2.65625 -0.8125 C 2.914062 -0.8125 3.160156 -0.835938 3.390625 -0.890625 C 3.628906 -0.941406 3.878906 -1.03125 4.140625 -1.15625 L 4.140625 -0.234375 C 3.929688 -0.128906 3.707031 -0.0507812 3.46875 0 C 3.226562 0.0507812 2.941406 0.078125 2.609375 0.078125 Z M 2.609375 0.078125 "/></g></g></g><g fill="#000000" fill-opacity="1"><g transform="translate(46.623365, 39.749996)"><g><path d="M 1.8125 0 L 0.625 0 L 0.625 -6.078125 L 1.8125 -6.078125 Z M 1.8125 0 "/></g></g></g><g fill="#000000" fill-opacity="1"><g transform="translate(49.062387, 39.749996)"><g><path d="M 1.578125 -2.1875 C 1.578125 -1.757812 1.644531 -1.429688 1.78125 -1.203125 C 1.925781 -0.984375 2.160156 -0.875 2.484375 -0.875 C 2.796875 -0.875 3.019531 -0.984375 3.15625 -1.203125 C 3.300781 -1.429688 3.375 -1.757812 3.375 -2.1875 C 3.375 -2.625 3.300781 -2.945312 3.15625 -3.15625 C 3.019531 -3.375 2.789062 -3.484375 2.46875 -3.484375 C 2.15625 -3.484375 1.925781 -3.375 1.78125 -3.15625 C 1.644531 -2.945312 1.578125 -2.625 1.578125 -2.1875 Z M 4.59375 -2.1875 C 4.59375 -1.476562 4.40625 -0.921875 4.03125 -0.515625 C 3.65625 -0.117188 3.132812 0.078125 2.46875 0.078125 C 2.050781 0.078125 1.679688 -0.0078125 1.359375 -0.1875 C 1.035156 -0.375 0.785156 -0.640625 0.609375 -0.984375 C 0.441406 -1.328125 0.359375 -1.726562 0.359375 -2.1875 C 0.359375 -2.90625 0.546875 -3.460938 0.921875 -3.859375 C 1.296875 -4.253906 1.816406 -4.453125 2.484375 -4.453125 C 2.910156 -4.453125 3.28125 -4.359375 3.59375 -4.171875 C 3.914062 -3.992188 4.160156 -3.734375 4.328125 -3.390625 C 4.503906 -3.046875 4.59375 -2.644531 4.59375 -2.1875 Z M 4.59375 -2.1875 "/></g></g></g></svg>