<svg xmlns="http://www.w3.org/2000/svg" xmlns:xlink="http://www.w3.org/1999/xlink" width="250" zoomAndPan="magnify" viewBox="0 0 187.5 187.499992" height="250" preserveAspectRatio="xMidYMid meet" version="1.0"><defs><g/><clipPath id="1beba0cea4"><path d="M 6.152344 49.824219 L 180.835938 49.824219 L 180.835938 137.164062 L 6.152344 137.164062 Z M 6.152344 49.824219 " clip-rule="nonzero"/></clipPath><clipPath id="43dd074779"><path d="M 137.164062 49.824219 C 161.285156 49.824219 180.835938 69.375 180.835938 93.496094 C 180.835938 117.613281 161.285156 137.164062 137.164062 137.164062 L 49.824219 137.164062 C 25.707031 137.164062 6.152344 117.613281 6.152344 93.496094 C 6.152344 69.375 25.707031 49.824219 49.824219 49.824219 Z M 137.164062 49.824219 " clip-rule="nonzero"/></clipPath><clipPath id="1abbb31575"><path d="M 32 71.632812 L 65 71.632812 L 65 108.285156 L 32 108.285156 Z M 32 71.632812 " clip-rule="nonzero"/></clipPath><clipPath id="7d500c7272"><path d="M 30.125 80 L 38 80 L 38 100 L 30.125 100 Z M 30.125 80 " clip-rule="nonzero"/></clipPath></defs><g clip-path="url(#1beba0cea4)"><g clip-path="url(#43dd074779)"><path stroke-linecap="butt" transform="matrix(0.748005, 0, 0, 0.748005, 6.153837, 49.824324)" fill="none" stroke-linejoin="miter" d="M 175.146141 -0.000140338 C 207.393368 -0.000140338 233.530595 26.137086 233.530595 58.384313 C 233.530595 90.626318 207.393368 116.763544 175.146141 116.763544 L 58.382457 116.763544 C 26.140453 116.763544 -0.00199569 90.626318 -0.00199569 58.384313 C -0.00199569 26.137086 26.140453 -0.000140338 58.382457 -0.000140338 Z M 175.146141 -0.000140338 " stroke="#ffffff" stroke-width="6" stroke-opacity="1" stroke-miterlimit="4"/></g></g><path fill="#ffffff" d="M 50.125 84.695312 C 50.234375 84.585938 50.359375 84.503906 50.5 84.441406 C 50.644531 84.382812 50.789062 84.355469 50.945312 84.355469 C 51.097656 84.355469 51.246094 84.382812 51.386719 84.441406 C 51.53125 84.503906 51.65625 84.585938 51.761719 84.695312 L 56.390625 89.320312 C 56.5 89.429688 56.582031 89.554688 56.640625 89.695312 C 56.699219 89.839844 56.730469 89.988281 56.730469 90.140625 C 56.730469 90.292969 56.699219 90.441406 56.640625 90.582031 C 56.582031 90.726562 56.5 90.851562 56.390625 90.960938 L 51.761719 95.585938 C 51.65625 95.695312 51.53125 95.777344 51.386719 95.835938 C 51.246094 95.894531 51.097656 95.925781 50.945312 95.925781 C 50.792969 95.925781 50.644531 95.894531 50.5 95.835938 C 50.359375 95.777344 50.234375 95.695312 50.125 95.585938 C 50.019531 95.476562 49.933594 95.351562 49.875 95.210938 C 49.816406 95.066406 49.789062 94.921875 49.785156 94.765625 C 49.785156 94.613281 49.816406 94.464844 49.875 94.324219 C 49.933594 94.183594 50.015625 94.058594 50.125 93.949219 L 53.9375 90.140625 L 50.125 86.332031 C 50.015625 86.222656 49.933594 86.097656 49.875 85.957031 C 49.816406 85.816406 49.785156 85.667969 49.785156 85.511719 C 49.785156 85.359375 49.816406 85.210938 49.875 85.070312 C 49.933594 84.929688 50.015625 84.804688 50.125 84.695312 M 47.136719 84.695312 C 47.027344 84.585938 46.902344 84.503906 46.761719 84.441406 C 46.621094 84.382812 46.472656 84.355469 46.316406 84.355469 C 46.164062 84.355469 46.015625 84.382812 45.875 84.441406 C 45.734375 84.503906 45.605469 84.585938 45.5 84.695312 L 40.871094 89.320312 C 40.761719 89.429688 40.679688 89.554688 40.621094 89.695312 C 40.5625 89.839844 40.53125 89.988281 40.53125 90.140625 C 40.53125 90.292969 40.5625 90.441406 40.621094 90.582031 C 40.679688 90.726562 40.761719 90.851562 40.871094 90.960938 L 45.5 95.585938 C 45.609375 95.695312 45.734375 95.777344 45.875 95.835938 C 46.015625 95.894531 46.164062 95.925781 46.316406 95.925781 C 46.472656 95.925781 46.617188 95.894531 46.761719 95.835938 C 46.902344 95.777344 47.027344 95.695312 47.136719 95.585938 C 47.246094 95.476562 47.328125 95.351562 47.386719 95.210938 C 47.445312 95.070312 47.476562 94.921875 47.476562 94.765625 C 47.476562 94.613281 47.445312 94.464844 47.386719 94.324219 C 47.328125 94.183594 47.246094 94.058594 47.136719 93.949219 L 43.328125 90.140625 L 47.136719 86.332031 C 47.246094 86.222656 47.328125 86.097656 47.386719 85.957031 C 47.445312 85.816406 47.476562 85.667969 47.476562 85.511719 C 47.476562 85.359375 47.445312 85.210938 47.386719 85.070312 C 47.328125 84.929688 47.246094 84.804688 47.136719 84.695312 " fill-opacity="1" fill-rule="evenodd"/><g clip-path="url(#1abbb31575)"><path fill="#ffffff" d="M 37.0625 71.632812 L 60.199219 71.632812 C 60.503906 71.632812 60.804688 71.664062 61.101562 71.722656 C 61.398438 71.78125 61.6875 71.867188 61.96875 71.984375 C 62.25 72.101562 62.515625 72.242188 62.769531 72.414062 C 63.019531 72.582031 63.253906 72.773438 63.46875 72.988281 C 63.683594 73.203125 63.875 73.4375 64.046875 73.6875 C 64.214844 73.941406 64.355469 74.207031 64.472656 74.488281 C 64.589844 74.769531 64.675781 75.058594 64.734375 75.355469 C 64.796875 75.65625 64.824219 75.957031 64.824219 76.261719 L 64.824219 104.019531 C 64.824219 104.324219 64.796875 104.625 64.734375 104.921875 C 64.675781 105.222656 64.589844 105.511719 64.472656 105.792969 C 64.355469 106.070312 64.214844 106.339844 64.046875 106.589844 C 63.875 106.84375 63.683594 107.078125 63.46875 107.292969 C 63.253906 107.507812 63.019531 107.699219 62.769531 107.867188 C 62.515625 108.035156 62.25 108.179688 61.96875 108.296875 C 61.6875 108.410156 61.398438 108.5 61.101562 108.558594 C 60.804688 108.617188 60.503906 108.648438 60.199219 108.648438 L 37.0625 108.648438 C 36.761719 108.648438 36.460938 108.617188 36.160156 108.558594 C 35.863281 108.5 35.574219 108.410156 35.292969 108.296875 C 35.011719 108.179688 34.746094 108.035156 34.492188 107.867188 C 34.242188 107.699219 34.007812 107.507812 33.792969 107.292969 C 33.578125 107.078125 33.386719 106.84375 33.21875 106.589844 C 33.046875 106.339844 32.90625 106.070312 32.789062 105.792969 C 32.671875 105.511719 32.585938 105.222656 32.527344 104.921875 C 32.46875 104.625 32.4375 104.324219 32.4375 104.019531 L 32.4375 101.707031 L 34.75 101.707031 L 34.75 104.019531 C 34.75 104.328125 34.808594 104.621094 34.925781 104.90625 C 35.042969 105.191406 35.210938 105.441406 35.429688 105.65625 C 35.644531 105.875 35.894531 106.039062 36.179688 106.15625 C 36.460938 106.277344 36.757812 106.335938 37.0625 106.335938 L 60.199219 106.335938 C 60.503906 106.335938 60.800781 106.277344 61.082031 106.15625 C 61.367188 106.039062 61.617188 105.875 61.835938 105.65625 C 62.050781 105.441406 62.21875 105.191406 62.335938 104.90625 C 62.453125 104.621094 62.511719 104.328125 62.511719 104.019531 L 62.511719 76.261719 C 62.511719 75.953125 62.453125 75.65625 62.335938 75.375 C 62.21875 75.089844 62.050781 74.839844 61.835938 74.625 C 61.617188 74.40625 61.367188 74.238281 61.082031 74.121094 C 60.800781 74.003906 60.503906 73.945312 60.199219 73.945312 L 37.0625 73.945312 C 36.757812 73.945312 36.460938 74.003906 36.179688 74.121094 C 35.894531 74.238281 35.644531 74.40625 35.429688 74.625 C 35.210938 74.839844 35.042969 75.089844 34.925781 75.375 C 34.808594 75.65625 34.75 75.953125 34.75 76.261719 L 34.75 78.574219 L 32.4375 78.574219 L 32.4375 76.261719 C 32.4375 75.957031 32.46875 75.65625 32.527344 75.355469 C 32.585938 75.058594 32.671875 74.769531 32.789062 74.488281 C 32.90625 74.207031 33.046875 73.941406 33.21875 73.6875 C 33.386719 73.4375 33.578125 73.203125 33.792969 72.988281 C 34.007812 72.773438 34.242188 72.582031 34.492188 72.414062 C 34.746094 72.242188 35.011719 72.101562 35.292969 71.984375 C 35.574219 71.867188 35.863281 71.78125 36.160156 71.722656 C 36.460938 71.664062 36.761719 71.632812 37.0625 71.632812 " fill-opacity="1" fill-rule="nonzero"/></g><g clip-path="url(#7d500c7272)"><path fill="#ffffff" d="M 32.4375 83.199219 L 32.4375 82.042969 C 32.4375 81.890625 32.464844 81.742188 32.527344 81.601562 C 32.585938 81.460938 32.667969 81.332031 32.777344 81.226562 C 32.882812 81.117188 33.007812 81.035156 33.152344 80.976562 C 33.292969 80.917969 33.441406 80.886719 33.59375 80.886719 C 33.746094 80.886719 33.894531 80.917969 34.035156 80.976562 C 34.179688 81.035156 34.304688 81.117188 34.410156 81.226562 C 34.519531 81.332031 34.605469 81.460938 34.664062 81.601562 C 34.722656 81.742188 34.75 81.890625 34.75 82.042969 L 34.75 83.199219 L 35.90625 83.199219 C 36.0625 83.199219 36.207031 83.230469 36.351562 83.289062 C 36.492188 83.347656 36.617188 83.429688 36.726562 83.539062 C 36.832031 83.648438 36.917969 83.773438 36.976562 83.914062 C 37.035156 84.054688 37.0625 84.203125 37.0625 84.355469 C 37.0625 84.511719 37.035156 84.65625 36.976562 84.800781 C 36.917969 84.941406 36.832031 85.066406 36.726562 85.175781 C 36.617188 85.28125 36.492188 85.367188 36.351562 85.425781 C 36.207031 85.484375 36.0625 85.511719 35.90625 85.511719 L 31.28125 85.511719 C 31.128906 85.511719 30.980469 85.484375 30.839844 85.425781 C 30.695312 85.367188 30.570312 85.28125 30.460938 85.175781 C 30.355469 85.066406 30.269531 84.941406 30.210938 84.800781 C 30.152344 84.65625 30.125 84.511719 30.125 84.355469 C 30.125 84.203125 30.152344 84.054688 30.210938 83.914062 C 30.269531 83.773438 30.355469 83.648438 30.460938 83.539062 C 30.570312 83.429688 30.695312 83.347656 30.839844 83.289062 C 30.980469 83.230469 31.128906 83.199219 31.28125 83.199219 Z M 32.4375 90.140625 L 32.4375 88.984375 C 32.4375 88.832031 32.464844 88.683594 32.527344 88.539062 C 32.585938 88.398438 32.667969 88.273438 32.777344 88.164062 C 32.882812 88.058594 33.007812 87.972656 33.152344 87.914062 C 33.292969 87.855469 33.441406 87.828125 33.59375 87.828125 C 33.746094 87.828125 33.894531 87.855469 34.035156 87.914062 C 34.179688 87.972656 34.304688 88.058594 34.410156 88.164062 C 34.519531 88.273438 34.605469 88.398438 34.664062 88.539062 C 34.722656 88.683594 34.75 88.832031 34.75 88.984375 L 34.75 90.140625 L 35.90625 90.140625 C 36.0625 90.140625 36.207031 90.167969 36.351562 90.226562 C 36.492188 90.285156 36.617188 90.371094 36.726562 90.480469 C 36.832031 90.585938 36.917969 90.710938 36.976562 90.855469 C 37.035156 90.996094 37.0625 91.144531 37.0625 91.296875 C 37.0625 91.449219 37.035156 91.597656 36.976562 91.738281 C 36.917969 91.882812 36.832031 92.007812 36.726562 92.113281 C 36.617188 92.222656 36.492188 92.308594 36.351562 92.367188 C 36.207031 92.425781 36.0625 92.453125 35.90625 92.453125 L 31.28125 92.453125 C 31.128906 92.453125 30.980469 92.425781 30.839844 92.367188 C 30.695312 92.308594 30.570312 92.222656 30.460938 92.113281 C 30.355469 92.007812 30.269531 91.882812 30.210938 91.738281 C 30.152344 91.597656 30.125 91.449219 30.125 91.296875 C 30.125 91.144531 30.152344 90.996094 30.210938 90.855469 C 30.269531 90.710938 30.355469 90.585938 30.460938 90.480469 C 30.570312 90.371094 30.695312 90.285156 30.839844 90.226562 C 30.980469 90.167969 31.128906 90.140625 31.28125 90.140625 Z M 32.4375 97.082031 L 32.4375 95.925781 C 32.4375 95.769531 32.464844 95.621094 32.527344 95.480469 C 32.585938 95.339844 32.667969 95.214844 32.777344 95.105469 C 32.882812 94.996094 33.007812 94.914062 33.152344 94.855469 C 33.292969 94.796875 33.441406 94.765625 33.59375 94.765625 C 33.746094 94.765625 33.894531 94.796875 34.035156 94.855469 C 34.179688 94.914062 34.304688 94.996094 34.410156 95.105469 C 34.519531 95.214844 34.605469 95.339844 34.664062 95.480469 C 34.722656 95.621094 34.75 95.769531 34.75 95.925781 L 34.75 97.082031 L 35.90625 97.082031 C 36.0625 97.082031 36.207031 97.109375 36.351562 97.167969 C 36.492188 97.226562 36.617188 97.3125 36.726562 97.417969 C 36.832031 97.527344 36.917969 97.652344 36.976562 97.792969 C 37.035156 97.9375 37.0625 98.082031 37.0625 98.238281 C 37.0625 98.390625 37.035156 98.539062 36.976562 98.679688 C 36.917969 98.820312 36.832031 98.945312 36.726562 99.054688 C 36.617188 99.164062 36.492188 99.246094 36.351562 99.304688 C 36.207031 99.363281 36.0625 99.394531 35.90625 99.394531 L 31.28125 99.394531 C 31.128906 99.394531 30.980469 99.363281 30.839844 99.304688 C 30.695312 99.246094 30.570312 99.164062 30.460938 99.054688 C 30.355469 98.945312 30.269531 98.820312 30.210938 98.679688 C 30.152344 98.539062 30.125 98.390625 30.125 98.238281 C 30.125 98.082031 30.152344 97.9375 30.210938 97.792969 C 30.269531 97.652344 30.355469 97.527344 30.460938 97.417969 C 30.570312 97.3125 30.695312 97.226562 30.839844 97.167969 C 30.980469 97.109375 31.128906 97.082031 31.28125 97.082031 Z M 32.4375 97.082031 " fill-opacity="1" fill-rule="nonzero"/></g><g fill="#ffffff" fill-opacity="1"><g transform="translate(75.720394, 96.997841)"><g><path d="M 0.296875 4.1875 C -0.378906 4.1875 -0.972656 4.113281 -1.484375 3.96875 L -1.484375 1.46875 C -0.960938 1.59375 -0.488281 1.65625 -0.0625 1.65625 C 0.601562 1.65625 1.078125 1.445312 1.359375 1.03125 C 1.648438 0.625 1.796875 -0.015625 1.796875 -0.890625 L 1.796875 -14.25 L 4.8125 -14.25 L 4.8125 -0.921875 C 4.8125 0.742188 4.429688 2.007812 3.671875 2.875 C 2.910156 3.75 1.785156 4.1875 0.296875 4.1875 Z M 0.296875 4.1875 "/></g></g><g transform="translate(82.323899, 96.997841)"><g><path d="M 7.640625 -11.09375 C 8.046875 -11.09375 8.378906 -11.066406 8.640625 -11.015625 L 8.421875 -8.21875 C 8.179688 -8.28125 7.890625 -8.3125 7.546875 -8.3125 C 6.597656 -8.3125 5.859375 -8.066406 5.328125 -7.578125 C 4.796875 -7.097656 4.53125 -6.421875 4.53125 -5.546875 L 4.53125 0 L 1.5625 0 L 1.5625 -10.890625 L 3.8125 -10.890625 L 4.25 -9.0625 L 4.390625 -9.0625 C 4.734375 -9.675781 5.191406 -10.164062 5.765625 -10.53125 C 6.335938 -10.90625 6.960938 -11.09375 7.640625 -11.09375 Z M 7.640625 -11.09375 "/></g></g><g transform="translate(91.381804, 96.997841)"><g><path d="M 4.8125 -7.921875 L 5.78125 -7.921875 C 6.738281 -7.921875 7.441406 -8.078125 7.890625 -8.390625 C 8.347656 -8.710938 8.578125 -9.21875 8.578125 -9.90625 C 8.578125 -10.570312 8.34375 -11.046875 7.875 -11.328125 C 7.414062 -11.617188 6.703125 -11.765625 5.734375 -11.765625 L 4.8125 -11.765625 Z M 4.8125 -5.46875 L 4.8125 0 L 1.796875 0 L 1.796875 -14.25 L 5.9375 -14.25 C 7.875 -14.25 9.304688 -13.894531 10.234375 -13.1875 C 11.171875 -12.476562 11.640625 -11.410156 11.640625 -9.984375 C 11.640625 -9.140625 11.40625 -8.390625 10.9375 -7.734375 C 10.476562 -7.085938 9.828125 -6.578125 8.984375 -6.203125 C 11.128906 -3.003906 12.523438 -0.9375 13.171875 0 L 9.828125 0 L 6.421875 -5.46875 Z M 4.8125 -5.46875 "/></g></g><g transform="translate(104.549855, 96.997841)"><g><path d="M 8.46875 0 L 7.90625 -1.484375 L 7.828125 -1.484375 C 7.328125 -0.847656 6.8125 -0.410156 6.28125 -0.171875 C 5.75 0.0664062 5.054688 0.1875 4.203125 0.1875 C 3.160156 0.1875 2.335938 -0.109375 1.734375 -0.703125 C 1.140625 -1.296875 0.84375 -2.144531 0.84375 -3.25 C 0.84375 -4.40625 1.242188 -5.257812 2.046875 -5.8125 C 2.859375 -6.363281 4.078125 -6.664062 5.703125 -6.71875 L 7.59375 -6.78125 L 7.59375 -7.265625 C 7.59375 -8.367188 7.03125 -8.921875 5.90625 -8.921875 C 5.03125 -8.921875 4.003906 -8.65625 2.828125 -8.125 L 1.84375 -10.125 C 3.101562 -10.78125 4.492188 -11.109375 6.015625 -11.109375 C 7.484375 -11.109375 8.601562 -10.789062 9.375 -10.15625 C 10.15625 -9.519531 10.546875 -8.554688 10.546875 -7.265625 L 10.546875 0 Z M 7.59375 -5.046875 L 6.453125 -5 C 5.585938 -4.976562 4.941406 -4.820312 4.515625 -4.53125 C 4.097656 -4.25 3.890625 -3.816406 3.890625 -3.234375 C 3.890625 -2.398438 4.367188 -1.984375 5.328125 -1.984375 C 6.015625 -1.984375 6.5625 -2.179688 6.96875 -2.578125 C 7.382812 -2.972656 7.59375 -3.5 7.59375 -4.15625 Z M 7.59375 -5.046875 "/></g></g><g transform="translate(116.597843, 96.997841)"><g><path d="M 4.15625 0 L 0 -10.890625 L 3.109375 -10.890625 L 5.21875 -4.6875 C 5.445312 -3.894531 5.59375 -3.148438 5.65625 -2.453125 L 5.703125 -2.453125 C 5.742188 -3.078125 5.890625 -3.820312 6.140625 -4.6875 L 8.25 -10.890625 L 11.34375 -10.890625 L 7.203125 0 Z M 4.15625 0 "/></g></g><g transform="translate(127.944574, 96.997841)"><g><path d="M 6.0625 -8.984375 C 5.4375 -8.984375 4.941406 -8.78125 4.578125 -8.375 C 4.222656 -7.976562 4.019531 -7.414062 3.96875 -6.6875 L 8.140625 -6.6875 C 8.128906 -7.414062 7.9375 -7.976562 7.5625 -8.375 C 7.195312 -8.78125 6.695312 -8.984375 6.0625 -8.984375 Z M 6.484375 0.1875 C 4.734375 0.1875 3.363281 -0.289062 2.375 -1.25 C 1.382812 -2.21875 0.890625 -3.59375 0.890625 -5.375 C 0.890625 -7.195312 1.347656 -8.601562 2.265625 -9.59375 C 3.179688 -10.59375 4.441406 -11.09375 6.046875 -11.09375 C 7.585938 -11.09375 8.785156 -10.65625 9.640625 -9.78125 C 10.503906 -8.90625 10.9375 -7.691406 10.9375 -6.140625 L 10.9375 -4.703125 L 3.90625 -4.703125 C 3.9375 -3.859375 4.1875 -3.195312 4.65625 -2.71875 C 5.125 -2.25 5.78125 -2.015625 6.625 -2.015625 C 7.28125 -2.015625 7.898438 -2.082031 8.484375 -2.21875 C 9.066406 -2.351562 9.675781 -2.570312 10.3125 -2.875 L 10.3125 -0.578125 C 9.789062 -0.316406 9.234375 -0.125 8.640625 0 C 8.054688 0.125 7.335938 0.1875 6.484375 0.1875 Z M 6.484375 0.1875 "/></g></g><g transform="translate(139.72959, 96.997841)"><g><path d="M 4.53125 0 L 1.5625 0 L 1.5625 -15.15625 L 4.53125 -15.15625 Z M 4.53125 0 "/></g></g><g transform="translate(145.816892, 96.997841)"><g><path d="M 3.921875 -5.46875 C 3.921875 -4.382812 4.097656 -3.566406 4.453125 -3.015625 C 4.804688 -2.460938 5.382812 -2.1875 6.1875 -2.1875 C 6.976562 -2.1875 7.546875 -2.460938 7.890625 -3.015625 C 8.242188 -3.566406 8.421875 -4.382812 8.421875 -5.46875 C 8.421875 -6.539062 8.242188 -7.347656 7.890625 -7.890625 C 7.535156 -8.429688 6.960938 -8.703125 6.171875 -8.703125 C 5.378906 -8.703125 4.804688 -8.429688 4.453125 -7.890625 C 4.097656 -7.359375 3.921875 -6.550781 3.921875 -5.46875 Z M 11.453125 -5.46875 C 11.453125 -3.695312 10.984375 -2.3125 10.046875 -1.3125 C 9.117188 -0.3125 7.816406 0.1875 6.140625 0.1875 C 5.097656 0.1875 4.175781 -0.0351562 3.375 -0.484375 C 2.582031 -0.941406 1.96875 -1.597656 1.53125 -2.453125 C 1.101562 -3.316406 0.890625 -4.320312 0.890625 -5.46875 C 0.890625 -7.25 1.351562 -8.628906 2.28125 -9.609375 C 3.21875 -10.597656 4.523438 -11.09375 6.203125 -11.09375 C 7.253906 -11.09375 8.175781 -10.863281 8.96875 -10.40625 C 9.769531 -9.957031 10.382812 -9.304688 10.8125 -8.453125 C 11.238281 -7.609375 11.453125 -6.613281 11.453125 -5.46875 Z M 11.453125 -5.46875 "/></g></g></g></svg>